<svg xmlns="http://www.w3.org/2000/svg" width="28" height="14" viewBox="0 0 27.139 13.775">
  <path id="Orion_infinity-01" d="M-57.913,187.2a5.827,5.827,0,0,1,5.851,5.851,5.827,5.827,0,0,1-5.851,5.851m-13.436.072a5.827,5.827,0,0,1-5.851-5.851,5.827,5.827,0,0,1,5.851-5.851m0,11.7c6.718,0,6.718-11.7,13.436-11.7m-4.623,9.174a5.681,5.681,0,0,0,4.551,2.528M-71.349,187.2a5.681,5.681,0,0,1,4.551,2.528" transform="translate(78.2 -186.2)" fill="none" stroke="#fff" stroke-linecap="round" stroke-linejoin="round" stroke-miterlimit="10" stroke-width="2"/>
</svg>
