<svg xmlns="http://www.w3.org/2000/svg" width="28" height="17" viewBox="0 0 27.139 16.528">
  <g id="Group_2433" data-name="Group 2433" transform="translate(-136.5 -478.285)">
    <g id="Orion_infinity-02" transform="translate(213.802 353.1)">
      <path id="Path_4907" data-name="Path 4907" d="M-57,129.9a5.851,5.851,0,0,1,5.839,5.981A5.865,5.865,0,0,1-57,141.72m-13.458,0a5.851,5.851,0,0,1-5.839-5.981,5.865,5.865,0,0,1,5.839-5.839m0,11.82c6.765,0,6.765-11.82,13.529-11.82m-4.628,9.257A5.545,5.545,0,0,0-57,141.649M-70.462,129.9a6.364,6.364,0,0,1,4.628,2.563" transform="translate(0 -1.008)" fill="none" stroke="#5670ff" stroke-linecap="round" stroke-linejoin="round" stroke-miterlimit="10" stroke-width="2"/>
      <path id="Path_4908" data-name="Path 4908" d="M-64.753,126.4l1.282,5.056-4.628.854" transform="translate(-2.362 0)" fill="none" stroke="#5670ff" stroke-linecap="round" stroke-linejoin="round" stroke-miterlimit="10" stroke-width="2"/>
    </g>
  </g>
</svg>
